<svg width="32" height="32" viewBox="0 0 32 32" fill="none" xmlns="http://www.w3.org/2000/svg">
<rect x="0.5" y="0.5" width="31" height="31" rx="9.5" fill="#008554" stroke="#202020"/>
<mask id="mask0_12_78" style="mask-type:alpha" maskUnits="userSpaceOnUse" x="7" y="5" width="19" height="19">
<path d="M14.1778 23.3099C27.8773 21.4575 25.2076 7.69478 25.2076 7.69478C25.2076 7.69478 22.2487 4.87165 22.2065 5.18349C21.157 12.9416 11.6586 11.0938 11.6586 11.0938C11.6586 11.0938 1.19097 25.066 14.1778 23.3099Z" fill="white"/>
</mask>
<g mask="url(#mask0_12_78)">
<path d="M13.8314 11.891C13.9133 11.9059 14.0334 11.9297 14.1872 11.956C14.3404 11.987 14.5282 12.0057 14.7442 12.0301C14.9603 12.0601 15.205 12.0671 15.4725 12.0796C15.5396 12.0842 15.6078 12.0835 15.6771 12.0824C15.7468 12.0816 15.8177 12.0809 15.8897 12.0801C15.9619 12.0798 16.0351 12.0776 16.1097 12.0761C16.1839 12.0718 16.2589 12.0648 16.3352 12.0592C16.3637 12.0575 16.3931 12.0545 16.4218 12.0524C16.4423 12.0612 16.4634 12.0705 16.4852 12.0799C16.5234 12.0965 16.5637 12.114 16.6058 12.1324C16.648 12.1503 16.6899 12.1757 16.7346 12.1983C16.8223 12.2476 16.9221 12.2903 17.0184 12.3543C17.1162 12.4155 17.2231 12.4749 17.3252 12.5528C17.3775 12.5898 17.431 12.6275 17.4861 12.6662C17.5401 12.7056 17.592 12.7503 17.6468 12.7933C17.8669 12.9655 18.0805 13.1768 18.2969 13.4045C18.3988 13.5238 18.5106 13.6404 18.608 13.7719C18.6333 13.8041 18.6587 13.8365 18.6842 13.869C18.7099 13.9013 18.7361 13.9335 18.7592 13.9679C18.8073 14.0359 18.8558 14.1043 18.9046 14.1733C19.0829 14.4435 19.2587 14.7274 19.405 15.0292C19.4022 15.031 19.3996 15.0332 19.3968 15.035C19.0831 15.2537 18.7648 15.4482 18.4483 15.612C18.1312 15.7747 17.8196 15.9115 17.5235 16.0223C17.2268 16.1318 16.9474 16.2191 16.6956 16.2865C16.4434 16.353 16.2201 16.4032 16.0342 16.4397C15.8484 16.4752 15.7011 16.5012 15.6001 16.5165C15.499 16.5319 15.4452 16.5402 15.4452 16.5402C15.4452 16.5402 15.5004 16.5402 15.6036 16.5364C15.7065 16.5323 15.8582 16.5266 16.0498 16.5086C16.2412 16.4908 16.474 16.4649 16.7369 16.4171C17.0002 16.3707 17.2951 16.306 17.6082 16.2119C17.9221 16.1192 18.2555 15.9996 18.5926 15.8445C18.9091 15.7007 19.2312 15.5293 19.5443 15.3267C19.648 15.5591 19.7422 15.7967 19.8167 16.039L19.8583 16.1636C19.8712 16.2053 19.8817 16.2475 19.8936 16.2893C19.916 16.3733 19.9405 16.4571 19.9616 16.541C19.9962 16.7098 20.0403 16.8771 20.0629 17.0455C20.0943 17.2129 20.1085 17.3799 20.1274 17.5451C20.1365 17.6276 20.1367 17.7096 20.1419 17.7913C20.1458 17.8727 20.1519 17.9539 20.1488 18.0338C20.1482 18.1141 20.1476 18.1935 20.147 18.2724C20.1436 18.3508 20.136 18.428 20.1315 18.5051C20.1264 18.6597 20.097 18.807 20.08 18.953C20.0711 19.026 20.0522 19.0957 20.0391 19.1656C20.0238 19.2352 20.0128 19.305 19.9947 19.3714C19.9764 19.438 19.9584 19.5035 19.9408 19.5676C19.932 19.6 19.923 19.6318 19.9144 19.6635C19.9051 19.6949 19.8928 19.7248 19.8822 19.7553C19.8603 19.8157 19.839 19.8749 19.818 19.9328C19.8072 19.9615 19.798 19.9908 19.786 20.0185C19.7738 20.046 19.7618 20.0732 19.7497 20.0999C19.726 20.1538 19.7028 20.2064 19.6805 20.2576C19.6691 20.2832 19.658 20.3085 19.6471 20.3335C19.6341 20.3573 19.6213 20.3808 19.6089 20.4041C19.5581 20.4972 19.5108 20.5843 19.4671 20.6649C19.4173 20.7427 19.3715 20.814 19.3303 20.8785C19.3093 20.911 19.2896 20.9416 19.2711 20.9704C19.2504 20.9978 19.231 21.0235 19.2129 21.0475C19.2114 21.0496 19.21 21.0516 19.2084 21.0537C18.8361 21.3031 18.4653 21.5203 18.1082 21.7071C17.6936 21.9257 17.2948 22.0982 16.9368 22.2427C16.7559 22.3111 16.5879 22.3791 16.428 22.4321C16.2688 22.4862 16.1239 22.5405 15.9888 22.5791C15.8547 22.6204 15.735 22.6576 15.6308 22.6897C15.5252 22.7187 15.4355 22.7434 15.3626 22.7633C15.2169 22.8033 15.139 22.8247 15.139 22.8247C15.139 22.8247 15.219 22.8099 15.3686 22.7819C15.4436 22.7678 15.5361 22.7505 15.6448 22.7301C15.7527 22.7069 15.8761 22.6781 16.0145 22.6459C16.1538 22.6163 16.3036 22.5719 16.469 22.5283C16.6353 22.4869 16.8085 22.4261 16.9968 22.3677C17.0914 22.3395 17.1856 22.3029 17.284 22.2682C17.3816 22.232 17.4841 22.1985 17.5857 22.1573C17.6874 22.1158 17.7916 22.0731 17.8984 22.0296C18.0054 21.9864 18.1103 21.9343 18.2202 21.8854C18.6557 21.684 19.114 21.4399 19.569 21.1421C20.0244 20.8459 20.4801 20.5005 20.9091 20.1037C21.3386 19.7077 21.7512 19.2689 22.1205 18.7888C22.4925 18.3109 22.8237 17.7952 23.1187 17.2627C23.4107 16.7288 23.6574 16.1738 23.8696 15.618C23.9242 15.4794 23.9714 15.3389 24.0214 15.2002C24.0662 15.0601 24.1136 14.9213 24.1549 14.7818C24.2401 14.5033 24.3158 14.2261 24.3842 13.9519C24.5227 13.404 24.6183 12.8658 24.6938 12.3539C24.7691 11.8418 24.8133 11.3538 24.8412 10.9028C24.8695 10.4515 24.8761 10.0364 24.8732 9.6688C24.8707 9.30083 24.8549 8.97976 24.8375 8.71576C24.8205 8.45165 24.797 8.24435 24.781 8.10315C24.7642 7.96199 24.7526 7.88701 24.7526 7.88701C24.7526 7.88701 24.7571 7.96242 24.7604 8.10338C24.7641 8.24454 24.7639 8.45127 24.7615 8.7139C24.7583 8.97662 24.7468 9.29482 24.7271 9.65898C24.7156 9.85416 24.7002 10.0627 24.681 10.2826C24.6521 10.1924 24.6141 10.0952 24.56 9.99708C24.5085 9.89753 24.4394 9.79877 24.3612 9.70078C24.3202 9.65327 24.2787 9.60422 24.2316 9.55903C24.1868 9.51181 24.1368 9.46835 24.0861 9.42487C23.9833 9.33953 23.8718 9.2603 23.7547 9.19053C23.6958 9.15675 23.6363 9.12405 23.576 9.09353C23.5925 9.01907 23.6077 8.94656 23.6217 8.8769C23.6714 8.63711 23.7042 8.4261 23.729 8.252C23.7544 8.07813 23.767 7.94034 23.7762 7.84665C23.78 7.7998 23.7829 7.76378 23.7849 7.73952C23.7856 7.73024 23.7863 7.72331 23.7867 7.71742C23.7871 7.71631 23.7874 7.71484 23.787 7.7135C23.7871 7.71316 23.787 7.71249 23.7871 7.71216C23.7869 7.71228 23.7868 7.71272 23.7867 7.71312C23.7865 7.71252 23.7863 7.71213 23.7856 7.71176C23.7842 7.71779 23.7822 7.72661 23.7792 7.7385C23.7736 7.76207 23.7653 7.79713 23.7544 7.84274C23.7333 7.93412 23.6987 8.0671 23.6544 8.23604C23.6094 8.40464 23.55 8.60817 23.4793 8.84037C23.4611 8.89927 23.4419 8.96001 23.4218 9.02232C23.4118 9.01804 23.4019 9.01334 23.3918 9.0093C23.3304 8.98297 23.2684 8.95984 23.2066 8.9388C23.1449 8.91745 23.0838 8.89764 23.0227 8.88147C22.7795 8.81256 22.5469 8.77918 22.3488 8.76563C22.2496 8.75993 22.159 8.758 22.0789 8.76052C22.0309 8.76149 21.9874 8.76433 21.9476 8.76766C22.0663 8.57658 22.1628 8.39325 22.2447 8.22914C22.3311 8.05155 22.3987 7.8938 22.4484 7.76184C22.5001 7.63068 22.5325 7.52471 22.5545 7.45276C22.5764 7.38072 22.5848 7.34149 22.5848 7.34149C22.5848 7.34149 22.5681 7.37795 22.5337 7.44511C22.5006 7.51247 22.4475 7.60958 22.3784 7.73159C22.3104 7.85419 22.2188 7.99842 22.1144 8.16284C22.0593 8.24363 22.0035 8.33107 21.9381 8.41926C21.9064 8.46384 21.8737 8.50955 21.8403 8.55624C21.8058 8.60222 21.7704 8.64928 21.7345 8.69724C21.5871 8.88731 21.4212 9.08843 21.2339 9.29116C21.0493 9.49606 20.8366 9.69694 20.6114 9.89806C20.4957 9.99599 20.3806 10.0976 20.255 10.1912C20.134 10.2897 20.0023 10.379 19.8723 10.4718C19.8084 10.5196 19.7379 10.5599 19.6702 10.6036C19.6014 10.6461 19.5346 10.6919 19.4641 10.7327C19.393 10.773 19.3219 10.8132 19.2507 10.8535C19.215 10.8735 19.1798 10.8943 19.1437 10.9136L19.0327 10.9682L18.8122 11.0788C18.7378 11.1144 18.6607 11.1449 18.5854 11.1783C18.5091 11.2098 18.4352 11.2458 18.3576 11.2742C18.2802 11.3029 18.2029 11.3315 18.126 11.3599C17.8174 11.4718 17.5036 11.561 17.1949 11.6344C17.1566 11.6438 17.1186 11.6544 17.08 11.6626C17.0413 11.6701 17.0026 11.6774 16.9641 11.6846C16.8871 11.6991 16.8111 11.7138 16.7358 11.7292C16.6982 11.7366 16.6606 11.7441 16.6233 11.7516C16.5862 11.7592 16.5482 11.7626 16.5109 11.7683C16.4361 11.7787 16.3621 11.7891 16.2893 11.799C16.2162 11.8088 16.1444 11.8199 16.0729 11.8283C16.0013 11.8342 15.9304 11.8393 15.8611 11.846C15.7915 11.8524 15.7233 11.8588 15.6561 11.8648C15.589 11.8715 15.523 11.8776 15.4578 11.8784C15.1977 11.885 14.9586 11.9033 14.7451 11.8961C14.5321 11.8924 14.3452 11.8986 14.1914 11.8866C14.0377 11.8781 13.9163 11.8747 13.8335 11.871C13.7504 11.8683 13.7061 11.8668 13.7061 11.8668C13.7061 11.8668 13.7498 11.8753 13.8314 11.891ZM23.7865 7.71803C23.7866 7.71878 23.7867 7.71915 23.7865 7.71875C23.7862 7.71903 23.7863 7.7187 23.7865 7.71803ZM21.8136 18.5853C21.7224 18.7008 21.6354 18.8188 21.5398 18.9296C21.4935 18.9859 21.4471 19.0422 21.401 19.0983C21.3542 19.1539 21.305 19.2074 21.2573 19.262C21.2089 19.316 21.1622 19.371 21.113 19.4236C21.0632 19.4758 21.0136 19.528 20.9641 19.58C20.8672 19.6855 20.7625 19.7831 20.6616 19.8824C20.2593 20.2665 19.8402 20.612 19.416 20.9112C19.4646 20.856 19.5177 20.7959 19.5753 20.7307C19.634 20.656 19.6919 20.5715 19.7569 20.4829C19.8811 20.3022 20.0087 20.0892 20.1194 19.8433C20.1335 19.8128 20.1498 19.7825 20.1627 19.7509C20.1752 19.7188 20.1879 19.6865 20.2005 19.654C20.2259 19.5886 20.2517 19.522 20.278 19.4542C20.305 19.3864 20.3211 19.3144 20.3436 19.2427C20.3634 19.1704 20.389 19.098 20.4048 19.0225C20.4207 18.9468 20.4368 18.87 20.4532 18.7924C20.4713 18.715 20.4813 18.6352 20.4918 18.5545C20.5024 18.474 20.5151 18.3924 20.5225 18.3098C20.5275 18.2267 20.5325 18.1428 20.5377 18.0583C20.5509 17.7198 20.5391 17.3666 20.484 17.0109C20.463 16.8324 20.423 16.6544 20.3861 16.4754C20.3644 16.3864 20.3393 16.2978 20.316 16.2088C20.3038 16.1644 20.2929 16.1197 20.2796 16.0755L20.2365 15.9435C20.1442 15.6515 20.0263 15.3658 19.8923 15.0897C19.9622 15.0392 20.0317 14.9879 20.1005 14.9351C20.1815 14.8728 20.2615 14.809 20.3406 14.7435C20.419 14.6772 20.4963 14.6093 20.5725 14.5399C20.8777 14.2621 21.1652 13.9599 21.4296 13.6418C21.4329 13.6377 21.4361 13.6334 21.4394 13.6293C21.5657 13.836 21.6848 14.0495 21.7899 14.2686C21.9037 14.5079 22.0019 14.7528 22.0884 14.9966C22.1696 15.2416 22.2401 15.4854 22.2947 15.7241C22.3196 15.8436 22.3457 15.9613 22.365 16.0771C22.375 16.135 22.3848 16.1924 22.3946 16.2491C22.402 16.306 22.4094 16.3622 22.4166 16.4176C22.4442 16.6396 22.4588 16.8505 22.4686 17.0457C22.4701 17.1433 22.4717 17.2369 22.4731 17.3259C22.4717 17.4149 22.4725 17.4997 22.4699 17.5792C22.4692 17.5949 22.4683 17.6094 22.4674 17.6249C22.2655 17.957 22.0484 18.2793 21.8136 18.5853ZM23.5197 15.4917C23.3078 16.0345 23.0627 16.575 22.7739 17.0936C22.7382 17.159 22.702 17.224 22.6653 17.2887C22.674 17.2157 22.6801 17.1392 22.689 17.0602C22.6952 16.9604 22.7023 16.8562 22.7062 16.748C22.7064 16.6396 22.7091 16.5273 22.7021 16.4118C22.6965 16.1805 22.6696 15.9362 22.6295 15.6842C22.6064 15.5584 22.5833 15.4305 22.5504 15.3021C22.5225 15.173 22.4822 15.0443 22.4444 14.914C22.3617 14.6549 22.2585 14.3959 22.1401 14.1422C22.0167 13.89 21.8769 13.6439 21.7222 13.4106C21.7045 13.3849 21.6868 13.3595 21.6692 13.3339C21.838 13.1089 21.9969 12.8787 22.1438 12.6456C22.3599 12.3057 22.5434 11.9561 22.7094 11.6142C22.7294 11.573 22.7479 11.532 22.767 11.4908C22.856 11.5931 22.9395 11.7004 23.0173 11.8114C23.1262 11.9636 23.2235 12.1229 23.309 12.285C23.3937 12.4472 23.4724 12.6099 23.5365 12.7721C23.5719 12.8521 23.5976 12.9337 23.6291 13.012C23.6558 13.0916 23.6849 13.1688 23.7079 13.2456C23.7327 13.322 23.7556 13.3967 23.7758 13.4694C23.798 13.5419 23.8163 13.6126 23.8338 13.6808C23.8531 13.7486 23.8679 13.8142 23.8831 13.8768C23.8995 13.9391 23.9124 13.9987 23.9249 14.0547C23.9374 14.1087 23.9488 14.1596 23.959 14.2068C23.8327 14.6327 23.6865 15.0629 23.5197 15.4917ZM23.5573 9.48142C23.6605 9.5408 23.7564 9.60845 23.8494 9.67601C23.9409 9.74569 24.026 9.81846 24.1048 9.89316C24.1806 9.96947 24.2539 10.0451 24.314 10.1237C24.3467 10.1615 24.3735 10.2014 24.4011 10.2394C24.4305 10.2767 24.4516 10.316 24.4764 10.3525C24.5222 10.4267 24.5624 10.4974 24.5937 10.5621C24.614 10.5993 24.6301 10.6343 24.6447 10.6668C24.6377 10.736 24.6304 10.8058 24.6228 10.8767C24.5712 11.3209 24.502 11.8 24.4117 12.3025C24.3207 12.7935 24.2063 13.3066 24.0655 13.8304C24.063 13.7753 24.0593 13.7185 24.0536 13.6588C24.0476 13.5877 24.0391 13.5133 24.0282 13.4365C24.0188 13.3594 24.0041 13.2802 23.989 13.1984C23.9757 13.1166 23.9528 13.0335 23.934 12.9479C23.9231 12.9052 23.911 12.8623 23.8988 12.819C23.887 12.7753 23.8737 12.7317 23.859 12.6879C23.804 12.512 23.7316 12.3326 23.6449 12.1546C23.5602 11.9758 23.4542 11.8006 23.3362 11.6319C23.2163 11.4644 23.0841 11.3026 22.9355 11.1581C22.9311 11.1532 22.9262 11.149 22.9215 11.1442C22.9983 10.9622 23.0686 10.7822 23.1332 10.6066C23.254 10.2815 23.3505 9.96832 23.4306 9.67737C23.4529 9.59817 23.4735 9.52078 23.4927 9.44495C23.5143 9.45725 23.5361 9.46872 23.5573 9.48142ZM21.1788 9.79236C21.2776 9.67968 21.375 9.57057 21.4619 9.45832C21.5522 9.3489 21.6333 9.23786 21.7107 9.12992C21.7498 9.07638 21.784 9.02094 21.8197 8.96805C21.8459 8.92819 21.872 8.88903 21.8966 8.8498C21.9463 8.86221 22.0036 8.87729 22.0678 8.89426C22.1431 8.91384 22.2273 8.93782 22.318 8.96413C22.4084 8.99199 22.5059 9.02111 22.6068 9.05636C22.7084 9.09009 22.8134 9.12937 22.9203 9.17174C23.0274 9.21368 23.1348 9.26229 23.2425 9.31281C23.266 9.32412 23.2892 9.33661 23.3126 9.3484C23.283 9.43409 23.2523 9.5221 23.2199 9.61234C23.118 9.89251 22.9984 10.1927 22.8644 10.5064C22.8054 10.6433 22.7416 10.7827 22.675 10.9234C22.6467 10.8998 22.6187 10.8763 22.5893 10.8547C22.5487 10.8247 22.5082 10.795 22.468 10.7655C22.3042 10.6522 22.1385 10.5528 21.9742 10.4725C21.9339 10.451 21.8922 10.4336 21.852 10.4151C21.8115 10.3969 21.7724 10.3779 21.7324 10.3622C21.6518 10.3321 21.5765 10.2984 21.5004 10.2748C21.3505 10.2231 21.2109 10.1845 21.0863 10.1556C21.0236 10.1421 20.966 10.1277 20.9115 10.1181C20.8969 10.1157 20.8836 10.1134 20.8696 10.1111C20.9234 10.0617 20.9719 10.0084 21.0226 9.9578C21.0756 9.9024 21.1308 9.84961 21.1788 9.79236ZM19.3486 11.2181C19.3865 11.1974 19.4234 11.1755 19.4608 11.1543C19.5354 11.1113 19.61 11.0686 19.6843 11.0257C19.7581 10.9825 19.8275 10.9338 19.8987 10.8876C19.9688 10.8402 20.0416 10.7965 20.1075 10.745C20.1747 10.6953 20.2416 10.6457 20.3082 10.5965C20.3759 10.5482 20.4357 10.4925 20.4994 10.4414C20.5611 10.3885 20.626 10.3394 20.6836 10.2842C20.7213 10.2492 20.7585 10.2146 20.7959 10.1799C20.8233 10.1908 20.852 10.2021 20.8828 10.2143C20.9322 10.2353 20.9857 10.2579 21.0428 10.2821C21.1564 10.3311 21.2825 10.389 21.416 10.4575C21.4837 10.49 21.5506 10.5298 21.6214 10.5674C21.6901 10.6086 21.7625 10.6487 21.8332 10.6948C21.9765 10.784 22.1186 10.8884 22.2603 11.0005C22.3503 11.0738 22.438 11.1529 22.5234 11.2355C22.4838 11.3146 22.4433 11.3942 22.4019 11.4742C22.2305 11.8045 22.0327 12.1352 21.8219 12.4643C21.7005 12.6521 21.5711 12.8373 21.4353 13.0194C21.364 12.9286 21.2878 12.8425 21.2145 12.7567C21.0315 12.5568 20.8438 12.3725 20.6519 12.2114C20.6056 12.1697 20.557 12.1312 20.5092 12.0934C20.4615 12.0555 20.4148 12.018 20.368 11.9822C20.2708 11.9142 20.1791 11.8465 20.0873 11.7864C20.041 11.7569 19.9958 11.7278 19.9514 11.6996C19.9075 11.6711 19.8644 11.6433 19.8199 11.6198C19.7319 11.5715 19.6509 11.5224 19.5709 11.4826C19.4909 11.4427 19.417 11.4044 19.3472 11.3712C19.2884 11.3457 19.2345 11.3222 19.1839 11.3005L19.2325 11.2764L19.3486 11.2181ZM17.2879 11.9375C17.6138 11.8736 17.9471 11.791 18.2738 11.6785C18.3553 11.6501 18.437 11.6216 18.5192 11.5929C18.6016 11.5649 18.6795 11.5274 18.7601 11.4946C18.8398 11.4602 18.9211 11.4283 18.9995 11.3914L19.1057 11.339C19.1099 11.3418 19.114 11.3443 19.1184 11.3471C19.1713 11.3802 19.2299 11.4169 19.2936 11.4568C19.3554 11.5 19.4231 11.5444 19.4948 11.5929C19.6365 11.6921 19.7914 11.8088 19.9553 11.9401C20.037 12.0059 20.1178 12.0791 20.203 12.1526C20.2832 12.231 20.3727 12.3052 20.4549 12.3906C20.4965 12.4326 20.5387 12.4753 20.5815 12.5185C20.6234 12.5622 20.6634 12.6084 20.7051 12.6539C20.7897 12.7442 20.8678 12.8424 20.951 12.9393C21.0425 13.0548 21.1322 13.1745 21.2193 13.2978C21.1858 13.3392 21.1532 13.3811 21.119 13.4221C20.8667 13.731 20.5937 14.0253 20.3032 14.2952C20.1177 14.466 19.9287 14.6301 19.7348 14.7833C19.7155 14.7468 19.6958 14.7101 19.6763 14.6739C19.6283 14.5951 19.5803 14.5166 19.5327 14.4386C19.4869 14.3599 19.4339 14.2851 19.3827 14.2103C19.3569 14.1731 19.3312 14.1359 19.3055 14.0989C19.2802 14.0619 19.2543 14.0252 19.2259 13.9902C19.1707 13.9192 19.1158 13.8492 19.0616 13.7794C19.0084 13.7093 18.9465 13.6455 18.8901 13.5797C18.7781 13.4471 18.6534 13.3282 18.5363 13.21C18.2914 12.9823 18.0458 12.7794 17.798 12.6181C17.7363 12.5774 17.678 12.5357 17.6174 12.4986C17.556 12.4635 17.496 12.429 17.4375 12.3954C17.3224 12.3259 17.2033 12.2752 17.0954 12.2227C17.0413 12.1966 16.9892 12.1715 16.9359 12.1524C16.8833 12.1325 16.8328 12.1131 16.7841 12.0947C16.7349 12.0771 16.6897 12.0572 16.6433 12.044C16.6333 12.0411 16.6239 12.0383 16.614 12.0355C16.8339 12.0128 17.0591 11.9804 17.2879 11.9375Z" fill="#161B15"/>
</g>
<path d="M6.47423 16.2814C7.26401 13.2773 10.6055 11.5519 13.9377 12.4279C17.2698 13.3039 19.3307 16.4495 18.5409 19.4537C17.751 22.4581 14.4096 24.1834 11.0775 23.3074C7.74529 22.4314 5.68438 19.2858 6.47423 16.2814Z" fill="#F1F1EE"/>
<path d="M16.1654 20.0917C16.2026 20.1134 16.2264 20.1625 16.2182 20.201L15.7973 22.1968C15.7891 22.2351 15.75 22.2775 15.7101 22.2908L13.565 23.0084C13.5252 23.0217 13.4632 23.0133 13.4273 22.9895L11.5609 21.7591C11.5251 21.7354 11.504 21.6851 11.5139 21.6472L11.9321 20.0564C11.9421 20.0185 11.9828 19.9766 12.0226 19.9633L14.4466 19.1523C14.4863 19.139 14.5494 19.1458 14.5866 19.1676L16.1654 20.0917Z" fill="#FEFEFE"/>
<path d="M8.36807 14.1555C8.39062 14.1228 8.44451 14.0966 8.48747 14.0971L10.7339 14.1258C10.7772 14.1263 10.8257 14.1573 10.8421 14.1946L11.5466 15.8035C11.5628 15.8407 11.5578 15.8979 11.5353 15.9305L10.1693 17.9145C10.1469 17.9472 10.0933 17.9744 10.0502 17.9751L8.22109 18.0032C8.17794 18.0038 8.12781 17.9744 8.10925 17.938L7.15189 16.0371C7.13344 16.0005 7.13679 15.9439 7.15924 15.9114L8.36807 14.1555Z" fill="#F1F1EE"/>
<path d="M10.0579 17.9771C10.1011 17.9765 10.1592 18.0016 10.1874 18.0327L11.8991 19.9309C11.9271 19.9621 11.9422 20.0186 11.9322 20.0565L11.514 21.6473C11.504 21.6851 11.4607 21.7186 11.4178 21.7215L9.18769 21.875C9.14482 21.8781 9.08668 21.8549 9.05838 21.8237L7.54361 20.144C7.51551 20.1128 7.50212 20.0565 7.51409 20.0193L8.12887 18.0744C8.14078 18.0369 8.18569 18.0059 8.22872 18.0052L10.0579 17.9771Z" fill="#F1F1EE"/>
<path d="M15.7563 15.4864C15.7889 15.462 15.8465 15.459 15.8843 15.4798L17.8543 16.5596C17.8923 16.5804 17.9262 16.6296 17.9297 16.6691L18.1186 18.7925C18.1221 18.8319 18.0973 18.8829 18.0632 18.9056L16.2948 20.0899C16.2608 20.1124 16.2025 20.1134 16.1654 20.0916L14.5866 19.1676C14.5494 19.1458 14.5161 19.0958 14.5127 19.0563L14.299 16.657C14.2954 16.6175 14.3193 16.5653 14.352 16.5409L15.7563 15.4864Z" fill="#F1F1EE"/>
<path d="M10.8499 14.1966C10.8337 14.1594 10.846 14.108 10.8775 14.0824L12.516 12.754C12.5474 12.7285 12.6078 12.7167 12.6496 12.7277L14.9115 13.3223C14.9536 13.3334 15.0002 13.3733 15.0152 13.411L15.7885 15.3735C15.8034 15.4112 15.7889 15.4621 15.7563 15.4865L14.352 16.5409C14.3193 16.5653 14.2583 16.5763 14.2162 16.5652L11.6604 15.8933C11.6184 15.8823 11.5706 15.8427 11.5543 15.8054L10.8499 14.1966Z" fill="#FEFEFE"/>
<path d="M15.7974 22.197C15.7892 22.2353 15.8179 22.2656 15.861 22.2643L16.633 22.2404C16.676 22.2392 16.7337 22.2143 16.7613 22.1851L18.4494 19.7302C18.4668 19.6949 18.4675 19.6355 18.4511 19.5984L18.1553 18.9321C18.1387 18.8949 18.0974 18.8831 18.0634 18.9058L16.2949 20.0901C16.2608 20.1127 16.2265 20.1627 16.2184 20.2012L15.7974 22.197ZM9.18773 21.8752C9.14487 21.8782 9.12357 21.911 9.14029 21.948L9.44179 22.6149C9.45855 22.652 9.50409 22.6977 9.54324 22.7164C9.54324 22.7164 10.4989 23.1739 11.0731 23.3248C11.647 23.4757 12.7042 23.5474 12.7042 23.5474C12.7473 23.5504 12.8095 23.5329 12.8425 23.5089L13.4329 23.0766C13.4657 23.0525 13.4633 23.0135 13.4273 22.9898L11.561 21.7593C11.5252 21.7356 11.4608 21.7187 11.4178 21.7217L9.18773 21.8752ZM11.6605 15.8935C11.6185 15.8825 11.5655 15.9001 11.5431 15.9328L10.1771 17.9167C10.1547 17.9494 10.1593 18.0016 10.1875 18.0328L11.8993 19.9311C11.9272 19.9622 11.983 19.9769 12.0228 19.9635L14.4467 19.1525C14.4864 19.1392 14.5162 19.096 14.5128 19.0565L14.2991 16.6573C14.2955 16.6178 14.2584 16.5765 14.2163 16.5654L11.6605 15.8935ZM6.68067 19.535C6.69044 19.574 6.72851 19.6241 6.76526 19.6462L7.42569 20.0467C7.46248 20.069 7.50221 20.0567 7.51414 20.0194L8.12911 18.0746C8.14083 18.037 8.13564 17.9766 8.11705 17.9401L7.15972 16.0393C7.14127 16.0027 7.09953 15.9928 7.06677 16.017L6.4816 16.4516C6.44883 16.4758 6.42051 16.5278 6.4182 16.5672L6.68067 19.535ZM12.5161 12.7542C12.5475 12.7287 12.5432 12.6897 12.5061 12.6676L11.8417 12.2701C11.8045 12.248 11.7404 12.2367 11.6986 12.2449L8.70211 13.2489C8.6649 13.2671 8.62635 13.3132 8.61617 13.3512L8.43539 14.0296C8.4252 14.0674 8.45222 14.0989 8.49525 14.0993L10.7418 14.1281C10.785 14.1286 10.8461 14.1082 10.8775 14.0826L12.5161 12.7542ZM17.8545 16.5598C17.8924 16.5806 17.9314 16.5666 17.9412 16.5286L18.1174 15.849C18.1272 15.811 18.1161 15.7518 18.0928 15.7176L15.9776 13.3698C15.9452 13.3421 15.8836 13.3204 15.8406 13.3215L15.0664 13.3407C15.0234 13.3418 15.0002 13.3735 15.0152 13.4112L15.7886 15.3737C15.8035 15.4114 15.8466 15.4592 15.8843 15.4801L17.8545 16.5598Z" fill="#161B15"/>
</svg>
