<svg width="80" height="80" viewBox="0 0 80 80" fill="none" xmlns="http://www.w3.org/2000/svg">
<rect x="0.5" y="0.5" width="79" height="79" rx="14.5" stroke="black"/>
<rect x="10.5" y="10.5" width="59" height="59" rx="9.5" stroke="black"/>
<path d="M30.048 23.516V25.664H27.6V29H24.72V20H30.624L30.264 22.304H27.6V23.516H30.048ZM31.0614 24.512C31.0614 23.688 31.1294 22.98 31.2654 22.388C31.4094 21.788 31.6454 21.296 31.9734 20.912C32.3094 20.528 32.7494 20.244 33.2934 20.06C33.8374 19.876 34.5094 19.784 35.3094 19.784C36.1174 19.784 36.7894 19.876 37.3254 20.06C37.8694 20.244 38.3054 20.528 38.6334 20.912C38.9694 21.296 39.2054 21.788 39.3414 22.388C39.4854 22.98 39.5574 23.688 39.5574 24.512C39.5574 25.296 39.4934 25.984 39.3654 26.576C39.2374 27.16 39.0094 27.648 38.6814 28.04C38.3614 28.432 37.9254 28.728 37.3734 28.928C36.8294 29.12 36.1414 29.216 35.3094 29.216C34.4774 29.216 33.7854 29.12 33.2334 28.928C32.6894 28.728 32.2534 28.432 31.9254 28.04C31.6054 27.648 31.3814 27.16 31.2534 26.576C31.1254 25.984 31.0614 25.296 31.0614 24.512ZM34.1574 23.012V26.756H35.3574C35.7574 26.756 36.0414 26.712 36.2094 26.624C36.3854 26.528 36.4734 26.316 36.4734 25.988V22.244H35.2614C34.8774 22.244 34.5974 22.292 34.4214 22.388C34.2454 22.476 34.1574 22.684 34.1574 23.012ZM40.1318 24.512C40.1318 23.688 40.1998 22.98 40.3358 22.388C40.4798 21.788 40.7158 21.296 41.0438 20.912C41.3798 20.528 41.8198 20.244 42.3638 20.06C42.9078 19.876 43.5798 19.784 44.3798 19.784C45.1878 19.784 45.8598 19.876 46.3958 20.06C46.9398 20.244 47.3758 20.528 47.7038 20.912C48.0398 21.296 48.2758 21.788 48.4118 22.388C48.5558 22.98 48.6278 23.688 48.6278 24.512C48.6278 25.296 48.5638 25.984 48.4358 26.576C48.3078 27.16 48.0798 27.648 47.7518 28.04C47.4318 28.432 46.9958 28.728 46.4438 28.928C45.8998 29.12 45.2118 29.216 44.3798 29.216C43.5478 29.216 42.8558 29.12 42.3038 28.928C41.7598 28.728 41.3238 28.432 40.9958 28.04C40.6758 27.648 40.4518 27.16 40.3238 26.576C40.1958 25.984 40.1318 25.296 40.1318 24.512ZM43.2278 23.012V26.756H44.4278C44.8278 26.756 45.1118 26.712 45.2798 26.624C45.4558 26.528 45.5438 26.316 45.5438 25.988V22.244H44.3318C43.9478 22.244 43.6678 22.292 43.4918 22.388C43.3158 22.476 43.2278 22.684 43.2278 23.012ZM56.0421 20V22.304H53.9541V29H51.0741V22.304H48.9861V20H56.0421ZM29.892 44H24.72V35H29.388C30.252 35 30.868 35.168 31.236 35.504C31.604 35.84 31.788 36.328 31.788 36.968C31.788 37.616 31.672 38.116 31.44 38.468C31.208 38.812 30.892 39.04 30.492 39.152V39.236C31.652 39.436 32.232 40.228 32.232 41.612C32.232 42.332 32.04 42.912 31.656 43.352C31.28 43.784 30.692 44 29.892 44ZM28.728 40.412H27.6V41.888H28.704C29.112 41.888 29.316 41.64 29.316 41.144C29.316 40.656 29.12 40.412 28.728 40.412ZM28.512 36.968H27.6V38.312H28.488C28.856 38.312 29.04 38.088 29.04 37.64C29.04 37.192 28.864 36.968 28.512 36.968ZM35.7115 42.572L35.3875 44H32.3515L34.6795 35H39.1315L41.4595 44H38.4235L38.0875 42.572H35.7115ZM36.9835 37.76H36.8275L36.2395 40.28H37.5595L36.9835 37.76ZM47.7769 41.696V44H42.0169V35H44.8969V41.696H47.7769ZM54.3277 41.696V44H48.5677V35H51.4477V41.696H54.3277Z" fill="black"/>
<path d="M27.96 57H24.6V49.5H27.96C28.6333 49.5 29.1967 49.57 29.65 49.71C30.1033 49.8433 30.4667 50.06 30.74 50.36C31.0133 50.66 31.2067 51.0467 31.32 51.52C31.44 51.9933 31.5 52.5667 31.5 53.24C31.5 53.9133 31.44 54.49 31.32 54.97C31.2067 55.4433 31.0133 55.83 30.74 56.13C30.4667 56.43 30.1033 56.65 29.65 56.79C29.1967 56.93 28.6333 57 27.96 57ZM28 51.42H27V55.08H28C28.3333 55.08 28.57 55.0433 28.71 54.97C28.8567 54.89 28.93 54.7133 28.93 54.44V52.06C28.93 51.7867 28.8567 51.6133 28.71 51.54C28.57 51.46 28.3333 51.42 28 51.42ZM31.9841 53.26C31.9841 52.5733 32.0408 51.9833 32.1541 51.49C32.2741 50.99 32.4708 50.58 32.7441 50.26C33.0241 49.94 33.3908 49.7033 33.8441 49.55C34.2975 49.3967 34.8575 49.32 35.5241 49.32C36.1975 49.32 36.7575 49.3967 37.2041 49.55C37.6575 49.7033 38.0208 49.94 38.2941 50.26C38.5741 50.58 38.7708 50.99 38.8841 51.49C39.0041 51.9833 39.0641 52.5733 39.0641 53.26C39.0641 53.9133 39.0108 54.4867 38.9041 54.98C38.7975 55.4667 38.6075 55.8733 38.3341 56.2C38.0675 56.5267 37.7041 56.7733 37.2441 56.94C36.7908 57.1 36.2175 57.18 35.5241 57.18C34.8308 57.18 34.2541 57.1 33.7941 56.94C33.3408 56.7733 32.9775 56.5267 32.7041 56.2C32.4375 55.8733 32.2508 55.4667 32.1441 54.98C32.0375 54.4867 31.9841 53.9133 31.9841 53.26ZM34.5641 52.01V55.13H35.5641C35.8975 55.13 36.1341 55.0933 36.2741 55.02C36.4208 54.94 36.4941 54.7633 36.4941 54.49V51.37H35.4841C35.1641 51.37 34.9308 51.41 34.7841 51.49C34.6375 51.5633 34.5641 51.7367 34.5641 52.01ZM45.2427 49.5V51.42H43.5027V57H41.1027V51.42H39.3627V49.5H45.2427Z" fill="black"/>
<path d="M52.5988 48.0088C55.1196 48.0137 57.1589 50.2843 57.1535 53.0804C57.1481 55.8764 55.1 58.139 52.5792 58.1341C50.0581 58.1292 48.0189 55.8587 48.0243 53.0627C48.0298 50.2666 50.0778 48.0039 52.5988 48.0088Z" fill="#F1F1EE"/>
<path d="M51.5917 56.3994C51.5822 56.4331 51.5485 56.4618 51.5166 56.4633L49.8631 56.5415C49.8314 56.543 49.7901 56.5209 49.7715 56.4923L48.7686 54.9548C48.7501 54.9263 48.7439 54.8758 48.7552 54.8428L49.3392 53.1251C49.3504 53.0922 49.3857 53.0653 49.4174 53.0654L50.7523 53.0679C50.7841 53.068 50.8253 53.0914 50.8439 53.1199L51.9772 54.8573C51.9958 54.8858 52.0034 54.9367 51.9939 54.9704L51.5917 56.3994Z" fill="#FEFEFE"/>
<path d="M54.6561 49.0605C54.6864 49.0715 54.718 49.1085 54.7264 49.1423L55.164 50.9122C55.1725 50.9463 55.1581 50.9908 55.1321 51.0113L54.013 51.894C53.9871 51.9144 53.9412 51.9221 53.911 51.9112L52.0732 51.2449C52.043 51.234 52.0106 51.1975 52.0013 51.1637L51.6046 49.7331C51.5952 49.6994 51.608 49.654 51.6329 49.632L52.9295 48.4909C52.9544 48.4689 52.9995 48.4599 53.0297 48.4709L54.6561 49.0605Z" fill="#F1F1EE"/>
<path d="M52.0012 51.1703C52.0105 51.2041 52.0027 51.2549 51.9841 51.2834L50.8441 53.0163C50.8253 53.0447 50.784 53.0681 50.7522 53.068L49.4173 53.0654C49.3856 53.0654 49.3504 53.0382 49.3393 53.0051L48.762 51.2853C48.7509 51.2523 48.7572 51.2019 48.7758 51.1733L49.7847 49.6397C49.8034 49.6113 49.8448 49.5892 49.8765 49.591L51.5297 49.6754C51.5616 49.6771 51.5951 49.706 51.6045 49.7397L52.0012 51.1703Z" fill="#F1F1EE"/>
<path d="M55.1242 55.1348C55.15 55.1554 55.1642 55.2 55.1556 55.234L54.7112 57.0022C54.7026 57.0362 54.6709 57.0729 54.6406 57.0838L53.0119 57.667C52.9817 57.6779 52.9366 57.6688 52.9117 57.6467L51.6196 56.5005C51.5949 56.4785 51.5822 56.4329 51.5917 56.3993L51.9939 54.9703C52.0034 54.9366 52.0359 54.9002 52.0662 54.8895L53.9065 54.2302C53.9368 54.2193 53.9827 54.2274 54.0085 54.248L55.1242 55.1348Z" fill="#F1F1EE"/>
<path d="M55.1322 51.0178C55.1581 50.9975 55.201 50.9966 55.2275 51.0161L56.6063 52.0307C56.6327 52.0502 56.6544 52.0952 56.6543 52.1303L56.6506 54.0282C56.6506 54.0635 56.6287 54.1083 56.6022 54.1278L55.2195 55.137C55.1929 55.1564 55.15 55.1555 55.1242 55.1349L54.0085 54.2481C53.9827 54.2274 53.9616 54.1817 53.9617 54.1464L53.9658 52.0018C53.9659 51.9666 53.9872 51.9209 54.0131 51.9005L55.1322 51.0178Z" fill="#FEFEFE"/>
<path d="M49.863 56.5416C49.8313 56.543 49.8134 56.5718 49.8232 56.6053L50.0001 57.2067C50.0099 57.2402 50.0412 57.2804 50.0698 57.2961L52.3434 58.1189C52.3747 58.1254 52.4214 58.1137 52.4472 58.0932L52.9098 57.7245C52.9356 57.7038 52.9365 57.669 52.9116 57.6469L51.6195 56.5007C51.5947 56.4786 51.5484 56.4619 51.5165 56.4634L49.863 56.5416ZM48.762 51.2853C48.7509 51.2523 48.7208 51.2423 48.6951 51.263L48.2332 51.6364C48.2075 51.6571 48.1809 51.7022 48.1742 51.7368C48.1742 51.7368 48.0107 52.5809 48.0098 53.0627C48.0089 53.5443 48.1691 54.3892 48.1691 54.3892C48.1756 54.4236 48.202 54.4689 48.2276 54.4899L48.6881 54.865C48.7137 54.8858 48.7438 54.8759 48.7551 54.8428L49.3391 53.1252C49.3503 53.0923 49.3504 53.0383 49.3393 53.0051L48.762 51.2853ZM53.9657 52.002C53.9658 51.9667 53.9411 51.9287 53.9108 51.9178L52.0731 51.2515C52.0429 51.2406 52.0028 51.2549 51.9841 51.2834L50.844 53.0165C50.8253 53.0447 50.8252 53.0915 50.8438 53.1201L51.9772 54.8574C51.9957 54.8859 52.0358 54.9004 52.0661 54.8896L53.9063 54.2304C53.9366 54.2195 53.9615 54.1819 53.9615 54.1466L53.9657 52.002ZM50.0862 48.8373C50.0576 48.853 50.0261 48.8931 50.0162 48.9265L49.837 49.5272C49.827 49.5606 49.8448 49.5893 49.8765 49.591L51.5297 49.6756C51.5616 49.6771 51.608 49.6607 51.6328 49.6386L52.9294 48.4975C52.9543 48.4755 52.9536 48.4407 52.9278 48.42L52.4667 48.0495C52.441 48.0287 52.3944 48.0171 52.3629 48.0234L50.0862 48.8373ZM56.6061 52.0309C56.6326 52.0503 56.6623 52.0389 56.6721 52.0053L56.8481 51.4021C56.8579 51.3684 56.8537 51.3157 56.8386 51.2846L55.4365 49.1372C55.4145 49.1117 55.3704 49.0909 55.3386 49.0907L54.7688 49.0876C54.737 49.0874 54.7179 49.115 54.7263 49.1489L55.1638 50.919C55.1723 50.953 55.2009 50.9968 55.2274 51.0162L56.6061 52.0309ZM54.7111 57.0024C54.7025 57.0364 54.7216 57.0642 54.7534 57.0641L55.3231 57.0633C55.355 57.0632 55.3992 57.0423 55.4212 57.0171L56.8317 54.8751C56.8468 54.8441 56.8512 54.7913 56.8416 54.7577L56.6679 54.1537C56.6583 54.1201 56.6286 54.1084 56.6021 54.1279L55.2194 55.1371C55.1928 55.1566 55.1641 55.2002 55.1555 55.2341L54.7111 57.0024Z" fill="#161B15"/>
</svg>
