<svg width="80" height="80" viewBox="0 0 80 80" fill="none" xmlns="http://www.w3.org/2000/svg">
<rect x="0.5" y="0.5" width="79" height="79" rx="14.5" stroke="black"/>
<rect x="10.5" y="10.5" width="59" height="59" rx="9.5" stroke="black"/>
<path d="M30.048 23.516V25.664H27.6V29H24.72V20H30.624L30.264 22.304H27.6V23.516H30.048ZM31.0614 24.512C31.0614 23.688 31.1294 22.98 31.2654 22.388C31.4094 21.788 31.6454 21.296 31.9734 20.912C32.3094 20.528 32.7494 20.244 33.2934 20.06C33.8374 19.876 34.5094 19.784 35.3094 19.784C36.1174 19.784 36.7894 19.876 37.3254 20.06C37.8694 20.244 38.3054 20.528 38.6334 20.912C38.9694 21.296 39.2054 21.788 39.3414 22.388C39.4854 22.98 39.5574 23.688 39.5574 24.512C39.5574 25.296 39.4934 25.984 39.3654 26.576C39.2374 27.16 39.0094 27.648 38.6814 28.04C38.3614 28.432 37.9254 28.728 37.3734 28.928C36.8294 29.12 36.1414 29.216 35.3094 29.216C34.4774 29.216 33.7854 29.12 33.2334 28.928C32.6894 28.728 32.2534 28.432 31.9254 28.04C31.6054 27.648 31.3814 27.16 31.2534 26.576C31.1254 25.984 31.0614 25.296 31.0614 24.512ZM34.1574 23.012V26.756H35.3574C35.7574 26.756 36.0414 26.712 36.2094 26.624C36.3854 26.528 36.4734 26.316 36.4734 25.988V22.244H35.2614C34.8774 22.244 34.5974 22.292 34.4214 22.388C34.2454 22.476 34.1574 22.684 34.1574 23.012ZM40.1318 24.512C40.1318 23.688 40.1998 22.98 40.3358 22.388C40.4798 21.788 40.7158 21.296 41.0438 20.912C41.3798 20.528 41.8198 20.244 42.3638 20.06C42.9078 19.876 43.5798 19.784 44.3798 19.784C45.1878 19.784 45.8598 19.876 46.3958 20.06C46.9398 20.244 47.3758 20.528 47.7038 20.912C48.0398 21.296 48.2758 21.788 48.4118 22.388C48.5558 22.98 48.6278 23.688 48.6278 24.512C48.6278 25.296 48.5638 25.984 48.4358 26.576C48.3078 27.16 48.0798 27.648 47.7518 28.04C47.4318 28.432 46.9958 28.728 46.4438 28.928C45.8998 29.12 45.2118 29.216 44.3798 29.216C43.5478 29.216 42.8558 29.12 42.3038 28.928C41.7598 28.728 41.3238 28.432 40.9958 28.04C40.6758 27.648 40.4518 27.16 40.3238 26.576C40.1958 25.984 40.1318 25.296 40.1318 24.512ZM43.2278 23.012V26.756H44.4278C44.8278 26.756 45.1118 26.712 45.2798 26.624C45.4558 26.528 45.5438 26.316 45.5438 25.988V22.244H44.3318C43.9478 22.244 43.6678 22.292 43.4918 22.388C43.3158 22.476 43.2278 22.684 43.2278 23.012ZM56.0421 20V22.304H53.9541V29H51.0741V22.304H48.9861V20H56.0421ZM29.892 44H24.72V35H29.388C30.252 35 30.868 35.168 31.236 35.504C31.604 35.84 31.788 36.328 31.788 36.968C31.788 37.616 31.672 38.116 31.44 38.468C31.208 38.812 30.892 39.04 30.492 39.152V39.236C31.652 39.436 32.232 40.228 32.232 41.612C32.232 42.332 32.04 42.912 31.656 43.352C31.28 43.784 30.692 44 29.892 44ZM28.728 40.412H27.6V41.888H28.704C29.112 41.888 29.316 41.64 29.316 41.144C29.316 40.656 29.12 40.412 28.728 40.412ZM28.512 36.968H27.6V38.312H28.488C28.856 38.312 29.04 38.088 29.04 37.64C29.04 37.192 28.864 36.968 28.512 36.968ZM35.7115 42.572L35.3875 44H32.3515L34.6795 35H39.1315L41.4595 44H38.4235L38.0875 42.572H35.7115ZM36.9835 37.76H36.8275L36.2395 40.28H37.5595L36.9835 37.76ZM47.7769 41.696V44H42.0169V35H44.8969V41.696H47.7769ZM54.3277 41.696V44H48.5677V35H51.4477V41.696H54.3277ZM28.752 59H24.72V50H28.752C29.56 50 30.236 50.084 30.78 50.252C31.324 50.412 31.76 50.672 32.088 51.032C32.416 51.392 32.648 51.856 32.784 52.424C32.928 52.992 33 53.68 33 54.488C33 55.296 32.928 55.988 32.784 56.564C32.648 57.132 32.416 57.596 32.088 57.956C31.76 58.316 31.324 58.58 30.78 58.748C30.236 58.916 29.56 59 28.752 59ZM28.8 52.304H27.6V56.696H28.8C29.2 56.696 29.484 56.652 29.652 56.564C29.828 56.468 29.916 56.256 29.916 55.928V53.072C29.916 52.744 29.828 52.536 29.652 52.448C29.484 52.352 29.2 52.304 28.8 52.304ZM33.581 54.512C33.581 53.688 33.649 52.98 33.785 52.388C33.929 51.788 34.165 51.296 34.493 50.912C34.829 50.528 35.269 50.244 35.813 50.06C36.357 49.876 37.029 49.784 37.829 49.784C38.637 49.784 39.309 49.876 39.845 50.06C40.389 50.244 40.825 50.528 41.153 50.912C41.489 51.296 41.725 51.788 41.861 52.388C42.005 52.98 42.077 53.688 42.077 54.512C42.077 55.296 42.013 55.984 41.885 56.576C41.757 57.16 41.529 57.648 41.201 58.04C40.881 58.432 40.445 58.728 39.893 58.928C39.349 59.12 38.661 59.216 37.829 59.216C36.997 59.216 36.305 59.12 35.753 58.928C35.209 58.728 34.773 58.432 34.445 58.04C34.125 57.648 33.901 57.16 33.773 56.576C33.645 55.984 33.581 55.296 33.581 54.512ZM36.677 53.012V56.756H37.877C38.277 56.756 38.561 56.712 38.729 56.624C38.905 56.528 38.993 56.316 38.993 55.988V52.244H37.781C37.397 52.244 37.117 52.292 36.941 52.388C36.765 52.476 36.677 52.684 36.677 53.012ZM49.4913 50V52.304H47.4033V59H44.5233V52.304H42.4353V50H49.4913Z" fill="black"/>
<path d="M53 53C51.3458 53 50 54.3458 50 56C50 57.6542 51.3458 59 53 59C54.6542 59 56 57.6542 56 56C56 54.3458 54.6542 53 53 53ZM55.0625 57.3846H54.4103C54.3901 57.3846 54.3702 57.3792 54.3527 57.3691C54.3353 57.359 54.3207 57.3444 54.3106 57.3269L54.0778 56.9277C54.0625 56.9016 54.0581 56.8705 54.0654 56.8412L54.2798 55.9769C54.2841 55.9595 54.2924 55.9433 54.304 55.9297C54.3156 55.916 54.3303 55.9053 54.3468 55.8983L54.7521 55.7267C54.7719 55.7183 54.7937 55.7156 54.8149 55.7189C54.8362 55.7222 54.8561 55.7314 54.8724 55.7454L55.4728 56.2621C55.4876 56.2748 55.499 56.2911 55.5057 56.3094C55.5125 56.3277 55.5146 56.3475 55.5116 56.3668C55.4619 56.7079 55.3427 57.0353 55.1614 57.3285C55.1512 57.3456 55.1367 57.3598 55.1194 57.3696C55.102 57.3794 55.0824 57.3846 55.0625 57.3846ZM51.2479 55.7278L51.6532 55.8995C51.6697 55.9065 51.6844 55.9172 51.696 55.9308C51.7076 55.9445 51.7159 55.9607 51.7202 55.9781L51.9346 56.8423C51.9419 56.8717 51.9375 56.9027 51.9222 56.9288L51.6894 57.3269C51.6793 57.3444 51.6647 57.359 51.6473 57.3691C51.6298 57.3792 51.6099 57.3846 51.5897 57.3846H50.9375C50.9178 57.3846 50.8984 57.3796 50.8812 57.37C50.8639 57.3603 50.8495 57.3465 50.8391 57.3297C50.6579 57.0364 50.5387 56.7091 50.4889 56.3679C50.486 56.3486 50.488 56.3289 50.4948 56.3106C50.5016 56.2923 50.5129 56.276 50.5277 56.2632L51.1282 55.7466C51.1444 55.7327 51.1642 55.7235 51.1854 55.7202C51.2065 55.7169 51.2282 55.7196 51.2479 55.7278ZM54.9538 54.4696L54.6931 55.2106C54.6879 55.2258 54.6796 55.2397 54.6687 55.2514C54.6577 55.2631 54.6445 55.2725 54.6298 55.2788L54.2032 55.4596C54.1836 55.4678 54.1621 55.4706 54.1411 55.4674C54.1201 55.4643 54.1003 55.4553 54.084 55.4417L53.2726 54.7611C53.2596 54.7503 53.2492 54.7369 53.2419 54.7217C53.2347 54.7065 53.2309 54.6899 53.2308 54.6731V54.1888C53.2308 54.1698 53.2355 54.1511 53.2444 54.1344C53.2534 54.1176 53.2663 54.1034 53.2821 54.0928L53.8999 53.6812C53.916 53.6704 53.9345 53.6639 53.9539 53.6622C53.9732 53.6605 53.9926 53.6637 54.0103 53.6715C54.3658 53.8266 54.6812 54.0606 54.9327 54.3558C54.9459 54.3712 54.9548 54.3899 54.9585 54.4098C54.9622 54.4298 54.9606 54.4504 54.9538 54.4696ZM52.1 53.6812L52.7179 54.0928C52.7337 54.1034 52.7466 54.1176 52.7556 54.1344C52.7645 54.1511 52.7692 54.1698 52.7692 54.1888V54.6731C52.7692 54.6899 52.7655 54.7066 52.7584 54.7219C52.7513 54.7371 52.7409 54.7507 52.728 54.7615L51.9165 55.4421C51.9003 55.4558 51.8805 55.4647 51.8595 55.4678C51.8385 55.471 51.817 55.4683 51.7974 55.46L51.3702 55.2788C51.3554 55.2726 51.3421 55.2633 51.3311 55.2516C51.32 55.2398 51.3116 55.2259 51.3063 55.2108L51.0457 54.4697C51.0389 54.4505 51.0373 54.4298 51.0411 54.4098C51.0449 54.3898 51.054 54.3712 51.0673 54.3558C51.3189 54.0603 51.6346 53.8261 51.9904 53.671C52.0081 53.6634 52.0273 53.6604 52.0465 53.6622C52.0656 53.664 52.084 53.6705 52.1 53.6812ZM52.3497 58.4042L52.0651 57.6875C52.0586 57.6712 52.0559 57.6536 52.0572 57.6362C52.0585 57.6187 52.0638 57.6017 52.0726 57.5865L52.2914 57.2115C52.3015 57.194 52.316 57.1795 52.3335 57.1694C52.351 57.1592 52.3708 57.1539 52.3911 57.1538H53.6089C53.6292 57.1539 53.649 57.1592 53.6665 57.1694C53.684 57.1795 53.6985 57.194 53.7086 57.2115L53.9275 57.5865C53.9364 57.6017 53.9417 57.6186 53.943 57.6361C53.9444 57.6536 53.9417 57.6712 53.9352 57.6875L53.6526 58.4039C53.6457 58.4214 53.6346 58.437 53.6203 58.4492C53.606 58.4615 53.5889 58.47 53.5706 58.4741C53.1956 58.5602 52.8061 58.5602 52.4312 58.4741C52.4129 58.47 52.396 58.4614 52.3818 58.4492C52.3676 58.437 52.3566 58.4216 52.3497 58.4042Z" fill="black"/>
</svg>
